# xmcd CD database file
#
# Track frame offsets:
#	150
#	16238
#	32823
#	51237
#	68014
#	87599
#	105234
#	123690
#	138045
#	152553
#	170793
#	184539
#	201221
#	216606
#	232280
#	248603
#	267080
#	283036
#	299651
#	309805
#	327256
#
# Disc length: 4615 seconds
#
# Revision: 3
# Processed by: cddbd v1.5.2PL0 Copyright (c) Steve Scherf et al.
# Submitted via: CDex 1.51
#
DISCID=38120515
DTITLE=Various Artist - Ö3 Greatest Hits 44
DYEAR=2008
DGENRE=Pop
TTITLE0=Pink - So What
TTITLE1=Katy Perry - Hot N Cold
TTITLE2=The Killers - Human
TTITLE3=Britney Spears - Womanizer
TTITLE4=Anastacia - Absolutely Positively
TTITLE5=Coldplay - Lost!
TTITLE6=Rihanna - Rehab
TTITLE7=The Last Goodnight - Pictures Of You
TTITLE8=Maria Mena - All This Time
TTITLE9=Polarkreis 18 - Allein Allein
TTITLE10=Christina Aguilera - Keeps Gettin' Better
TTITLE11=Reamonn - Through The Eyes Of A Child
TTITLE12=Leona Lewis - Forgive Me
TTITLE13=Tina Turner - It Would Be A Crime 
TTITLE14=Cardiac Move - Running In Your Mind
TTITLE15=Rosenstolz - Wie Weit Ist Vorbei
TTITLE16=James Morrison - You Make It Real
TTITLE17=Pussycat Dolls - I Hate This Part 
TTITLE18=Ingrid Michaelson - The Way I Am
TTITLE19=The Rasmus - Livin' In A World Without You
TTITLE20=Shesays - It's Time
EXTD=YEAR: 2008
EXTT0=
EXTT1=
EXTT2=
EXTT3=
EXTT4=
EXTT5=
EXTT6=
EXTT7=
EXTT8=
EXTT9=
EXTT10=
EXTT11=
EXTT12=
EXTT13=
EXTT14=
EXTT15=
EXTT16=
EXTT17=
EXTT18=
EXTT19=
EXTT20=
PLAYORDER=
